# xmcd
#
# Track frame offsets: 
#        150
#        16901
#        51453
#        73249
#        97895
#        112153
#        135299
#        149660
#        182969
#        218004
#        235637
#        277579
#        303869
#        329593
#
# Disc length: 4818 seconds
#
# Revision: 1
# Processed by: cddbd v1.5.2PL0 Copyright (c) Steve Scherf et al.
# Submitted via: ExactAudioCopyFreeDBPlugin 1.0
#
DISCID=ca12d00e
DTITLE=Gary Moore - 2001 Blues and Ballads CD 2
DYEAR=1900
DGENRE=blues
TTITLE0=01 Spanish Guitar
TTITLE1=02 As The Years Go Passing By
TTITLE2=03 Nothing's The Same
TTITLE3=04 The Loner
TTITLE4=05 Johnny Boy
TTITLE5=06 Love Me Now
TTITLE6=07 Parisienne Walkways (feat. Phil Lynott)
TTITLE7=08 The Messiah Will Come Again
TTITLE8=09 Need Your Love So Bad
TTITLE9=10 Falling In Love With You
TTITLE10=11 Surrender
TTITLE11=12 All Time Low
TTITLE12=13 Still In Love With You
TTITLE13=14 Parisienne Walkways (Live)
EXTD=
EXTT0=
EXTT1=
EXTT2=
EXTT3=
EXTT4=
EXTT5=
EXTT6=
EXTT7=
EXTT8=
EXTT9=
EXTT10=
EXTT11=
EXTT12=
EXTT13=
PLAYORDER=
